# xmcd
#
# Track frame offsets: 
#        150
#        17159
#        32493
#        50752
#        65167
#        83873
#        99846
#        123454
#        140118
#        156777
#        172331
#        189131
#        206093
#
# Disc length: 2818 seconds
#
# Revision: 1
# Processed by: cddbd v1.5.2PL0 Copyright (c) Steve Scherf et al.
# Submitted via: ExactAudioCopy v1.0b1
#
DISCID=b90b000d
DTITLE=Rosanne Cash - Black Cadillac
DYEAR=2006
DGENRE=Country
TTITLE0=Black Cadillac
TTITLE1=Radio Operator
TTITLE2=I Was Watching You
TTITLE3=Burn Down This Town
TTITLE4=God Is In The Roses
TTITLE5=House On The Lake
TTITLE6=The World Unseen
TTITLE7=Like Fugitives
TTITLE8=Dreams Are Not My Home
TTITLE9=Like A Wave
TTITLE10=World Without Sound
TTITLE11=The Good Intent
TTITLE12=0:71
EXTD=YEAR: 2006
EXTT0=
EXTT1=
EXTT2=
EXTT3=
EXTT4=
EXTT5=
EXTT6=
EXTT7=
EXTT8=
EXTT9=
EXTT10=
EXTT11=
EXTT12=
PLAYORDER=
